<?xml version="1.0" encoding="utf-8"?>
<svg version="1.1" width="128" height="128" xmlns="http://www.w3.org/2000/svg">
  <defs/>
  <path d="M0 0 C3.5 -0.375 3.5 -0.375 7 0 C9.02707152 3.04060728 9.25034035 3.61451234 9.25396729 7.02307129 C9.26242676 8.24701347 9.26242676 8.24701347 9.27105713 9.49568176 C9.26700867 10.38720444 9.26296021 11.27872711 9.25878906 12.19726562 C9.2622937 13.13898117 9.26579834 14.08069672 9.26940918 15.0509491 C9.27822475 18.16945732 9.2723779 21.2877394 9.265625 24.40625 C9.2669717 26.56953983 9.26891227 28.73282937 9.27142334 30.89611816 C9.27437437 35.43223957 9.2700776 39.96828227 9.26074219 44.50439453 C9.24934771 50.32544469 9.25590729 56.14631043 9.26788712 61.96735382 C9.27510625 66.43509313 9.27281753 70.90278856 9.26763153 75.37052917 C9.26629519 77.5171867 9.26794222 79.66384819 9.27259064 81.8105011 C9.2776567 84.80801992 9.26994439 87.80523801 9.25878906 90.80273438 C9.26283752 91.69425705 9.26688599 92.58577972 9.27105713 93.50431824 C9.26541748 94.32027969 9.25977783 95.13624115 9.25396729 95.97692871 C9.25321323 96.68557823 9.25245918 97.39422775 9.25168228 98.1243515 C9 100 9 100 7 103 C3.375 103.1875 3.375 103.1875 0 103 C-1.5980401 100.16901705 -2.25047337 98.13974532 -2.25396729 94.89463806 C-2.25960693 94.08571609 -2.26524658 93.27679413 -2.27105713 92.44335938 C-2.26700867 91.56478271 -2.26296021 90.68620605 -2.25878906 89.78100586 C-2.2622937 88.84889786 -2.26579834 87.91678986 -2.26940918 86.95643616 C-2.27821082 83.87582958 -2.27238329 80.79545266 -2.265625 77.71484375 C-2.26697198 75.5754034 -2.2689128 73.43596335 -2.27142334 71.29652405 C-2.27437238 66.81345708 -2.27008354 62.33046982 -2.26074219 57.84741211 C-2.24934094 52.09477117 -2.25591283 46.3423167 -2.26788712 40.58968258 C-2.27510573 36.17255746 -2.27281789 31.75547673 -2.26763153 27.3383503 C-2.2662954 25.21681255 -2.26794148 23.09527079 -2.27259064 20.97373772 C-2.27765659 18.01224931 -2.26994487 15.05106528 -2.25878906 12.08959961 C-2.26283752 11.20899872 -2.26688599 10.32839783 -2.27105713 9.42111206 C-2.22853205 3.34279808 -2.22853205 3.34279808 0 0 Z " transform="translate(90,10)" style="fill: rgb(255, 255, 255);"/>
  <path d="M0 0 C3.625 -0.1875 3.625 -0.1875 7 0 C9.55746314 3.85035524 9.28172546 7.85324741 9.25878906 12.30102539 C9.2622937 13.13559769 9.26579834 13.97016998 9.26940918 14.83003235 C9.27820486 17.58599182 9.27238551 20.34169421 9.265625 23.09765625 C9.26697214 25.01289418 9.26891309 26.92813177 9.27142334 28.84336853 C9.27437156 32.85565448 9.27008615 36.86785135 9.26074219 40.88012695 C9.24934015 46.02743387 9.2559138 51.1745324 9.26788712 56.3218317 C9.27510727 60.27572709 9.2728172 64.22957291 9.26763153 68.18346977 C9.26629587 70.0817206 9.26793985 71.97997591 9.27259064 73.87822151 C9.27765924 76.52839241 9.2699413 79.1782236 9.25878906 81.82836914 C9.26283752 82.61546265 9.26688599 83.40255615 9.27105713 84.21350098 C9.24137559 88.01318833 9.16013284 89.75980073 7 93 C4.47296063 94.0950504 3.4118074 94.15295704 0.8125 93.1875 C-1 92 -1 92 -2 90 C-2.10361772 87.26979181 -2.14680744 84.56489994 -2.14526367 81.83422852 C-2.14862228 80.9901947 -2.1519809 80.14616089 -2.15544128 79.27655029 C-2.16496577 76.47732078 -2.16689511 73.67815098 -2.16796875 70.87890625 C-2.17118018 68.93838984 -2.17454416 66.99787368 -2.17805481 65.05735779 C-2.18404975 60.9860681 -2.18589432 56.91479965 -2.18530273 52.84350586 C-2.18520106 47.61992927 -2.19885661 42.39648846 -2.21607494 37.17294407 C-2.22717884 33.16415274 -2.22922244 29.15539441 -2.22869301 25.14658928 C-2.22987543 23.22042307 -2.23431181 21.29425606 -2.24202538 19.36810493 C-2.25179327 16.67702779 -2.24895999 13.98624767 -2.24291992 11.29516602 C-2.24853943 10.49557968 -2.25415894 9.69599335 -2.25994873 8.87217712 C-2.23806028 5.04571818 -2.17448147 3.26172221 0 0 Z " transform="translate(31,15)" style="fill: rgb(255, 255, 255);"/>
  <path d="M0 0 C2.4375 0.75 2.4375 0.75 4.4375 2.75 C4.69819641 5.21018982 4.69819641 5.21018982 4.7121582 8.34545898 C4.72169022 9.51684921 4.73122223 10.68823944 4.74104309 11.89512634 C4.74013168 13.16594559 4.73922028 14.43676483 4.73828125 15.74609375 C4.74256638 17.04571548 4.7468515 18.34533722 4.75126648 19.68434143 C4.75873352 22.43747023 4.75843413 25.1904708 4.75317383 27.94360352 C4.7473803 31.47237162 4.76430424 35.00061465 4.7875185 38.52929592 C4.80579154 41.89325082 4.80207065 45.25708943 4.80078125 48.62109375 C4.809991 49.88988876 4.81920074 51.15868378 4.82868958 52.46592712 C4.82246078 53.64046951 4.81623199 54.8150119 4.80981445 56.02514648 C4.81044388 57.0605809 4.8110733 58.09601532 4.8117218 59.16282654 C4.4375 61.75 4.4375 61.75 3.10954285 63.62342834 C1.4375 64.75 1.4375 64.75 -1.6875 64.5 C-4.5625 63.75 -4.5625 63.75 -5.5625 62.75 C-5.67214688 60.85861521 -5.71160404 58.96312567 -5.72363281 57.06860352 C-5.73324036 55.85386856 -5.7428479 54.63913361 -5.75274658 53.3875885 C-5.75759369 52.05136298 -5.76187274 50.71513529 -5.765625 49.37890625 C-5.77137379 48.01749162 -5.77713155 46.65607703 -5.78289795 45.29466248 C-5.79341577 42.43724183 -5.79925341 39.5798494 -5.80273438 36.72241211 C-5.8082232 33.05567499 -5.83225566 29.38930848 -5.86070633 25.72268772 C-5.87930232 22.90975342 -5.88453665 20.09690897 -5.88607025 17.28391838 C-5.88910384 15.93187367 -5.8971561 14.5798308 -5.91025543 13.22784615 C-5.92725184 11.33890201 -5.92360019 9.44980588 -5.91894531 7.56079102 C-5.92259094 6.48459 -5.92623657 5.40838898 -5.92999268 4.29957581 C-5.7480838 3.03753578 -5.7480838 3.03753578 -5.5625 1.75 C-2.5625 -0.25 -2.5625 -0.25 0 0 Z " transform="translate(79.5625,29.25)" style="fill: rgb(255, 255, 255);"/>
  <path d="M0 0 C2.4375 0.75 2.4375 0.75 4.4375 2.75 C4.69819641 4.83055115 4.69819641 4.83055115 4.7121582 7.42749023 C4.72169022 8.39867294 4.73122223 9.36985565 4.74104309 10.37046814 C4.74013168 11.42254959 4.73922028 12.47463104 4.73828125 13.55859375 C4.74256638 14.63625504 4.7468515 15.71391632 4.75126648 16.82423401 C4.75701726 19.10652971 4.75750457 21.38884374 4.75317383 23.67114258 C4.75001602 27.16975081 4.77345702 30.66751217 4.79882812 34.16601562 C4.80110119 36.38020726 4.80180458 38.59440118 4.80078125 40.80859375 C4.809991 41.85865097 4.81920074 42.90870819 4.82868958 43.99058533 C4.82246078 44.9649202 4.81623199 45.93925507 4.80981445 46.94311523 C4.81044388 47.80090073 4.8110733 48.65868622 4.8117218 49.54246521 C4.4375 51.75 4.4375 51.75 3.10954285 53.5660553 C1.4375 54.75 1.4375 54.75 -1.6875 54.5 C-4.5625 53.75 -4.5625 53.75 -5.5625 52.75 C-5.67145849 51.16502331 -5.71154997 49.57524374 -5.72363281 47.98657227 C-5.73324036 46.97204483 -5.7428479 45.9575174 -5.75274658 44.9122467 C-5.75699646 43.80811935 -5.76124634 42.703992 -5.765625 41.56640625 C-5.77132507 40.44056625 -5.77702515 39.31472626 -5.78289795 38.1547699 C-5.79236412 35.76814723 -5.79888832 33.38151139 -5.80273438 30.99487305 C-5.81244925 27.33163842 -5.84346188 23.66896237 -5.875 20.00585938 C-5.88152863 17.69271168 -5.88677965 15.37955996 -5.890625 13.06640625 C-5.9029718 11.96430313 -5.9153186 10.86220001 -5.92803955 9.72669983 C-5.92503845 8.70902023 -5.92203735 7.69134064 -5.91894531 6.64282227 C-5.92259094 5.74427017 -5.92623657 4.84571808 -5.92999268 3.91993713 C-5.80872009 3.20385788 -5.68744751 2.48777863 -5.5625 1.75 C-2.5625 -0.25 -2.5625 -0.25 0 0 Z " transform="translate(20.5625,34.25)" style="fill: rgb(255, 255, 255);"/>
  <path d="M0 0 C2.875 0.75 2.875 0.75 3.875 1.75 C4.0009732 4.75636955 4.06368855 7.7385053 4.078125 10.74609375 C4.08382507 11.6499733 4.08952515 12.55385284 4.09539795 13.48512268 C4.10486229 15.40095849 4.1113876 17.31681069 4.11523438 19.23266602 C4.12494769 22.17167368 4.15596047 25.10998457 4.1875 28.04882812 C4.19402888 29.90624583 4.19927981 31.76366855 4.203125 33.62109375 C4.2154718 34.50445908 4.2278186 35.3878244 4.24053955 36.29795837 C4.23144531 38.77514648 4.23144531 38.77514648 3.875 42.75 C0.875 44.75 0.875 44.75 -2.25 44.5 C-3.19875 44.2525 -4.1475 44.005 -5.125 43.75 C-6.77723447 40.44553107 -6.30959463 36.76246106 -6.328125 33.12890625 C-6.33382507 32.27320541 -6.33952515 31.41750458 -6.34539795 30.53587341 C-6.35485099 28.72436766 -6.36138314 26.91284468 -6.36523438 25.10131836 C-6.3749492 22.32700734 -6.40597291 19.55343422 -6.4375 16.77929688 C-6.44402909 15.02083774 -6.44927993 13.2623733 -6.453125 11.50390625 C-6.4654718 10.67258682 -6.4778186 9.8412674 -6.49053955 8.98475647 C-6.46813197 3.20476705 -6.46813197 3.20476705 -4.79803467 0.99131775 C-3.125 -0.25 -3.125 -0.25 0 0 Z " transform="translate(50.125,39.25)" style="fill: rgb(255, 255, 255);"/>
  <path d="M0 0 C2.875 0.75 2.875 0.75 3.875 1.75 C4.0009732 4.75636955 4.06368855 7.7385053 4.078125 10.74609375 C4.08382507 11.6499733 4.08952515 12.55385284 4.09539795 13.48512268 C4.10486229 15.40095849 4.1113876 17.31681069 4.11523438 19.23266602 C4.12494769 22.17167368 4.15596047 25.10998457 4.1875 28.04882812 C4.19402888 29.90624583 4.19927981 31.76366855 4.203125 33.62109375 C4.2154718 34.50445908 4.2278186 35.3878244 4.24053955 36.29795837 C4.23144531 38.77514648 4.23144531 38.77514648 3.875 42.75 C0.875 44.75 0.875 44.75 -1.6875 44.5 C-4.125 43.75 -4.125 43.75 -6.125 41.75 C-6.33728452 38.84424954 -6.42896095 36.03626071 -6.42578125 33.12890625 C-6.43006638 32.27320541 -6.4343515 31.41750458 -6.43876648 30.53587341 C-6.44451468 28.72436407 -6.44500644 26.91283164 -6.44067383 25.10131836 C-6.4375164 22.32691095 -6.46095741 19.55357214 -6.48632812 16.77929688 C-6.48860129 15.02083468 -6.48930453 13.26236961 -6.48828125 11.50390625 C-6.497491 10.67258682 -6.50670074 9.8412674 -6.51618958 8.98475647 C-6.46969651 3.2064994 -6.46969651 3.2064994 -4.79704285 0.99131775 C-3.125 -0.25 -3.125 -0.25 0 0 Z " transform="translate(109.125,39.25)" style="fill: rgb(255, 255, 255);"/>
  <path d="M0 0 C2.1097676 3.1646514 2.25552605 3.97393773 2.265625 7.59765625 C2.26820312 8.48130859 2.27078125 9.36496094 2.2734375 10.27539062 C2.26570313 11.19513672 2.25796875 12.11488281 2.25 13.0625 C2.25773437 13.98611328 2.26546875 14.90972656 2.2734375 15.86132812 C2.27085938 16.74369141 2.26828125 17.62605469 2.265625 18.53515625 C2.26336914 19.343479 2.26111328 20.15180176 2.25878906 20.98461914 C2 23 2 23 0 25 C-3 25.25 -3 25.25 -6 25 C-8.93872655 22.06127345 -8.29169002 19.4763338 -8.32226562 15.45703125 C-8.31904297 14.48121094 -8.31582031 13.50539063 -8.3125 12.5 C-8.33666992 11.03626953 -8.33666992 11.03626953 -8.36132812 9.54296875 C-8.36197266 8.61097656 -8.36261719 7.67898437 -8.36328125 6.71875 C-8.36626221 5.86216797 -8.36924316 5.00558594 -8.37231445 4.12304688 C-8.24945068 3.42244141 -8.12658691 2.72183594 -8 2 C-4.79191085 -0.1387261 -3.72301503 -0.47730962 0 0 Z " transform="translate(67,49)" style="fill: rgb(255, 255, 255);"/>
  <path d="M0 0 C2.49057251 2.49057251 2.2565813 3.28472659 2.265625 6.71875 C2.26820313 7.65074219 2.27078125 8.58273438 2.2734375 9.54296875 C2.26570312 10.51878906 2.25796875 11.49460937 2.25 12.5 C2.25773438 13.47582031 2.26546875 14.45164062 2.2734375 15.45703125 C2.27085937 16.38902344 2.26828125 17.32101563 2.265625 18.28125 C2.26336914 19.13783203 2.26111328 19.99441406 2.25878906 20.87695312 C2 23 2 23 0 25 C-3 25.3125 -3 25.3125 -6 25 C-8.78095904 20.82856144 -8.33070347 17.40037332 -8.3125 12.5 C-8.32861328 11.63246094 -8.34472656 10.76492187 -8.36132812 9.87109375 C-8.36197266 9.03707031 -8.36261719 8.20304687 -8.36328125 7.34375 C-8.36626221 6.58255859 -8.36924316 5.82136719 -8.37231445 5.03710938 C-7.50505618 0.29192709 -4.39693643 -0.5637098 0 0 Z " transform="translate(126,49)" style="fill: rgb(255, 255, 255);"/>
  <path d="M0 0 C1.423125 0.37125 1.423125 0.37125 2.875 0.75 C4.63779117 4.27558233 4.10213881 8.30395591 4.125 12.1875 C4.145625 13.05955078 4.16625 13.93160156 4.1875 14.83007812 C4.19265625 15.66861328 4.1978125 16.50714844 4.203125 17.37109375 C4.21714355 18.52242798 4.21714355 18.52242798 4.23144531 19.69702148 C3.78023405 22.2958129 2.95343507 23.17074834 0.875 24.75 C-1.6875 25.0625 -1.6875 25.0625 -4.125 24.75 C-7.06372655 21.81127345 -6.41669002 19.2263338 -6.44726562 15.20703125 C-6.44404297 14.23121094 -6.44082031 13.25539063 -6.4375 12.25 C-6.46166992 10.78626953 -6.46166992 10.78626953 -6.48632812 9.29296875 C-6.48697266 8.36097656 -6.48761719 7.42898437 -6.48828125 6.46875 C-6.49126221 5.61216797 -6.49424316 4.75558594 -6.49731445 3.87304688 C-6.37445068 3.17244141 -6.25158691 2.47183594 -6.125 1.75 C-3.125 -0.25 -3.125 -0.25 0 0 Z " transform="translate(6.125,49.25)" style="fill: rgb(255, 255, 255);"/>
</svg>